<?xml version="1.0" encoding="UTF-8"?>
<!--
  pi-artifacts icon sprite (Phase C, Pass 2).

  CSP-clean icons: reference a symbol by id with
    <svg class="pi-icon" aria-hidden="true"><use href="/runtime/pi/icons.svg#check"></use></svg>
  Icons are stroke-based (currentColor) so they inherit text color. Paths are
  Lucide-style (ISC). Keep this set small; add symbols as real needs appear.
-->
<svg xmlns="http://www.w3.org/2000/svg" style="display:none">
  <symbol id="check" viewBox="0 0 24 24" fill="none" stroke="currentColor" stroke-width="2" stroke-linecap="round" stroke-linejoin="round">
    <path d="M20 6 9 17l-5-5"/>
  </symbol>
  <symbol id="x" viewBox="0 0 24 24" fill="none" stroke="currentColor" stroke-width="2" stroke-linecap="round" stroke-linejoin="round">
    <path d="M18 6 6 18M6 6l12 12"/>
  </symbol>
  <symbol id="info" viewBox="0 0 24 24" fill="none" stroke="currentColor" stroke-width="2" stroke-linecap="round" stroke-linejoin="round">
    <circle cx="12" cy="12" r="10"/><path d="M12 16v-4M12 8h.01"/>
  </symbol>
  <symbol id="alert-triangle" viewBox="0 0 24 24" fill="none" stroke="currentColor" stroke-width="2" stroke-linecap="round" stroke-linejoin="round">
    <path d="m21.73 18-8-14a2 2 0 0 0-3.48 0l-8 14A2 2 0 0 0 4 21h16a2 2 0 0 0 1.73-3Z"/><path d="M12 9v4M12 17h.01"/>
  </symbol>
  <symbol id="arrow-up" viewBox="0 0 24 24" fill="none" stroke="currentColor" stroke-width="2" stroke-linecap="round" stroke-linejoin="round">
    <path d="m5 12 7-7 7 7M12 19V5"/>
  </symbol>
  <symbol id="arrow-down" viewBox="0 0 24 24" fill="none" stroke="currentColor" stroke-width="2" stroke-linecap="round" stroke-linejoin="round">
    <path d="M12 5v14M19 12l-7 7-7-7"/>
  </symbol>
  <symbol id="trending-up" viewBox="0 0 24 24" fill="none" stroke="currentColor" stroke-width="2" stroke-linecap="round" stroke-linejoin="round">
    <path d="M16 7h6v6"/><path d="m22 7-8.5 8.5-5-5L2 17"/>
  </symbol>
  <symbol id="trending-down" viewBox="0 0 24 24" fill="none" stroke="currentColor" stroke-width="2" stroke-linecap="round" stroke-linejoin="round">
    <path d="M16 17h6v-6"/><path d="m22 17-8.5-8.5-5 5L2 7"/>
  </symbol>
  <symbol id="circle" viewBox="0 0 24 24" fill="none" stroke="currentColor" stroke-width="2" stroke-linecap="round" stroke-linejoin="round">
    <circle cx="12" cy="12" r="10"/>
  </symbol>
  <symbol id="external-link" viewBox="0 0 24 24" fill="none" stroke="currentColor" stroke-width="2" stroke-linecap="round" stroke-linejoin="round">
    <path d="M15 3h6v6M10 14 21 3M18 13v6a2 2 0 0 1-2 2H5a2 2 0 0 1-2-2V8a2 2 0 0 1 2-2h6"/>
  </symbol>
</svg>
